<?xml version="1.0" encoding="utf-8"?>
<!-- Svg Vector Icons : http://www.onlinewebfonts.com/icon -->
<!DOCTYPE svg PUBLIC "-//W3C//DTD SVG 1.1//EN" "http://www.w3.org/Graphics/SVG/1.1/DTD/svg11.dtd">
<svg version="1.1" xmlns="http://www.w3.org/2000/svg" xmlns:xlink="http://www.w3.org/1999/xlink" x="0px" y="0px" viewBox="0 0 256 256" enable-background="new 0 0 256 256" xml:space="preserve">
<metadata> Svg Vector Icons : http://www.onlinewebfonts.com/icon </metadata>
<g><g><g><path fill="#000000" d="M114.4,39c-26,1.9-48.8,7.7-69,17.8C25,66.9,15.1,77.8,11.5,93.7c-0.9,4.1-1,7-1.2,23.3L10,135.5l1.4,2.8c10.8,21.4,36.6,38.4,71,46.8c6.9,1.7,21.1,4.2,29.3,5.1l5.4,0.7l0.1,13.3l0.2,13.3l21.6-23.2c11.9-12.8,21.7-23.4,21.7-23.5c0.1-0.2-9.7-10.3-21.7-22.5l-21.8-22.1l-0.1,12.8v12.8l-9.6-0.3c-20.8-0.7-36.9-4.8-56.2-14.5c-9.3-4.7-15.5-8.4-22.1-13.3c-5-3.8-11.9-10.2-11.9-11.3c0-0.3,2.2-2.7,4.7-5.3c16-15.7,44.3-26.7,79.7-30.9c9.3-1.1,37.9-1.5,47.6-0.8c31.4,2.6,57.8,11.4,77.4,25.9c4.6,3.4,12.9,11.1,12.9,12c0,1.1-5.7,7.3-9.4,10.2c-9.2,7.3-27.3,15.7-45.5,21.2l-4.8,1.4v20c0,11,0.2,20,0.3,20s3.5-1.3,7.4-2.8c21.5-8.5,36.3-16.9,44.8-25.4c3.9-3.9,4.8-5.1,7.1-9.8c2.9-6.1,4.2-9.7,5.6-15.7c1.3-5.6,1.2-33.4-0.1-38.5c-4.4-17.2-23-34.5-47.3-43.8C174.4,41.1,143.1,36.9,114.4,39z"/></g></g></g>
</svg>