<?xml version="1.0" encoding="UTF-8"?>
<svg id="Layer_1" data-name="Layer 1" xmlns="http://www.w3.org/2000/svg" version="1.1" viewBox="0 0 207.19 62.09">
  <defs>
    <style>
      .cls-1 {
        fill: #f3f2e6;
        stroke-width: 0px;
      }
    </style>
  </defs>
  <path class="cls-1" d="M16.28,14.4c8.98,0,14.27,6.3,14.8,12.86h-5.22c-.67-4.62-3.89-8.04-9.44-8.04-7.64,0-11.05,5.9-11.05,12.86s3.42,12.86,11.05,12.86c5.56,0,8.77-3.42,9.44-8.04h5.22c-.54,6.57-5.76,12.86-14.8,12.86C6.16,49.77,0,41.8,0,32.08S5.96,14.4,16.28,14.4"/>
  <path class="cls-1" d="M38.05,14.93l10.11,27c.27.8.47,1.61.47,2.61,0,.4.07.87.54.87s.54-.47.54-.87c0-1,.2-1.74.47-2.55l9.31-27.06h5.9l-14.33,38.38c-2.35,6.36-5.49,8.78-11.66,8.78h-4.15v-4.82h3.62c5.09,0,6.16-2.08,7.03-4.69l.6-1.81-14.33-35.84h5.9Z"/>
  <path class="cls-1" d="M82.73,14.4c8.98,0,14.27,6.3,14.8,12.86h-5.22c-.67-4.62-3.89-8.04-9.44-8.04-7.64,0-11.05,5.9-11.05,12.86s3.42,12.86,11.05,12.86c5.56,0,8.78-3.42,9.44-8.04h5.22c-.54,6.57-5.76,12.86-14.8,12.86-10.11,0-16.28-7.97-16.28-17.68s5.96-17.68,16.28-17.68"/>
  <rect class="cls-1" x="102.89" y="1" width="5.36" height="48.23"/>
  <path class="cls-1" d="M115.22,35.3V14.93h5.36v20.1c0,7.97,3.62,10.18,8.37,10.18,5.22,0,10.92-5.02,10.92-13.2V14.93h5.36v34.3h-5.36v-2.88c0-1.21.13-2.28.67-3.68.2-.54.54-1.14,0-1.34-.4-.13-.67.27-.74.47-1.14,3.42-5.69,7.97-11.86,7.97-7.9,0-12.73-4.42-12.73-14.47"/>
  <path class="cls-1" d="M156.35,37.44c.07,3.68,2.48,7.77,9.45,7.77s8.91-3.42,8.91-5.63c0-3.35-2.28-4.55-11.39-5.63-7.37-.87-11.19-4.49-11.19-8.98,0-5.16,4.76-10.58,13.6-10.58,8.37,0,12.86,4.82,13.33,11.25h-5.29c-.2-3.28-1.94-6.7-8.24-6.7-5.96,0-8.04,3.08-8.04,5.36,0,1.94.6,4.15,9.38,5.22,8.1,1,13.2,3.55,13.2,9.04,0,6.97-5.69,11.19-14.54,11.19s-14.07-4.76-14.4-12.33h5.23Z"/>
  <path class="cls-1" d="M183.65,4.42c-1.21,0-2.35.47-3.21,1.33-1.77,1.77-1.77,4.65,0,6.42.86.86,2,1.33,3.21,1.33s2.35-.47,3.21-1.33l3.21-3.21-3.21-3.21c-.86-.86-2-1.33-3.21-1.33M183.65,16.05h0c-1.89,0-3.67-.74-5.01-2.08-2.76-2.76-2.76-7.26,0-10.02,1.34-1.34,3.12-2.08,5.01-2.08s3.67.74,5.01,2.08l5.01,5.01-5.01,5.01c-1.34,1.34-3.12,2.08-5.01,2.08"/>
  <path class="cls-1" d="M193.68,8.96l3.21,3.21c1.77,1.77,4.65,1.77,6.42,0s1.77-4.65,0-6.42c-1.77-1.77-4.65-1.77-6.42,0l-3.21,3.21ZM200.1,16.04c-1.82,0-3.63-.69-5.01-2.07l-5.01-5.01,5.01-5.01c2.76-2.76,7.26-2.76,10.02,0,2.76,2.76,2.76,7.26,0,10.02-1.38,1.38-3.2,2.07-5.01,2.07"/>
</svg>